<svg width="1200" height="630" viewBox="0 0 1200 630" fill="none" xmlns="http://www.w3.org/2000/svg">
  <defs>
    <linearGradient id="bg" x1="0" y1="0" x2="1200" y2="630" gradientUnits="userSpaceOnUse">
      <stop stop-color="#020816"/>
      <stop offset="1" stop-color="#04142D"/>
    </linearGradient>
    <linearGradient id="line" x1="120" y1="80" x2="1000" y2="560" gradientUnits="userSpaceOnUse">
      <stop stop-color="#22D3EE"/>
      <stop offset="1" stop-color="#2F7BFF"/>
    </linearGradient>
  </defs>
  <rect width="1200" height="630" fill="url(#bg)"/>
  <path d="M0 120 C 180 90, 340 160, 520 130 C 700 100, 920 150, 1200 120" stroke="url(#line)" stroke-opacity="0.4" stroke-width="2"/>
  <path d="M0 260 C 180 230, 360 300, 540 270 C 720 240, 930 300, 1200 260" stroke="url(#line)" stroke-opacity="0.32" stroke-width="2"/>
  <path d="M0 400 C 200 360, 370 450, 580 420 C 790 390, 980 450, 1200 420" stroke="url(#line)" stroke-opacity="0.22" stroke-width="2"/>
  <rect x="120" y="150" width="102" height="102" rx="24" fill="#071126" stroke="url(#line)" stroke-width="5"/>
  <path d="M172 175L150 217H172L162 250L206 193H184L194 175H172Z" fill="url(#line)"/>
  <text x="250" y="222" fill="#EAF4FF" font-size="68" font-family="Orbitron, Arial, sans-serif" font-weight="700">PINE X SYSTEMS</text>
  <text x="120" y="328" fill="#5CE6FF" font-size="54" font-family="Orbitron, Arial, sans-serif" font-weight="700">CUSTOM BUSINESS SYSTEMS</text>
  <text x="120" y="390" fill="#8CA5C7" font-size="36" font-family="Arial, sans-serif">Dashboards, automation, lead systems, workflows, and owner control.</text>
</svg>
